<?xml version="1.0" encoding="utf-8"?>
<!-- Generator: Adobe Illustrator 19.2.1, SVG Export Plug-In . SVG Version: 6.00 Build 0)  -->
<svg version="1.1" id="Слой_1" xmlns="http://www.w3.org/2000/svg" xmlns:xlink="http://www.w3.org/1999/xlink" x="0px" y="0px"
	 viewBox="0 0 1017.1 1028.9" style="enable-background:new 0 0 1017.1 1028.9;" xml:space="preserve">
<style type="text/css">
	.st0{fill:#6988AA;}
	.st1{fill:#FFFFFF;}
	.st2{font-family:'Lato-Light';}
	.st3{font-size:516.0467px;}
</style>
<g>
	<g>
		<circle class="st0" cx="153.6" cy="512" r="149.7"/>
		<circle class="st0" cx="864.4" cy="512" r="149.7"/>
		<circle class="st0" cx="508.9" cy="152.7" r="149.7"/>
		<circle class="st0" cx="508.9" cy="875.8" r="149.7"/>
		<path class="st0" d="M508.9,896.6L124.3,512l384.6-384.6L893.5,512L508.9,896.6z M182.5,512l326.4,326.4L835.3,512L508.9,185.7
			L182.5,512z"/>
	</g>
	<g>
		<g>
			<path class="st1" d="M412.8,875H227.2c-49.8,0-90.1-40.4-90.1-90.1V599.3c0-49.8,40.4-90.1,90.1-90.1h185.5
				c49.8,0,90.1,40.4,90.1,90.1v185.5C502.9,834.6,462.5,875,412.8,875z"/>
			<path class="st0" d="M412.8,881H227.2c-53,0-96.1-43.1-96.1-96.1V599.3c0-53,43.1-96.1,96.1-96.1h185.5c53,0,96.1,43.1,96.1,96.1
				v185.5C508.9,837.9,465.8,881,412.8,881z M227.2,515.2c-46.4,0-84.1,37.7-84.1,84.1v185.5c0,46.4,37.7,84.1,84.1,84.1h185.5
				c46.4,0,84.1-37.7,84.1-84.1V599.3c0-46.4-37.7-84.1-84.1-84.1H227.2z"/>
		</g>
		<text transform="matrix(1 0 0 1 169.6738 869.3551)" class="st0 st2 st3">+</text>
	</g>
</g>
</svg>
