<?xml version="1.0" encoding="utf-8"?>
<!-- Generator: Adobe Illustrator 19.2.1, SVG Export Plug-In . SVG Version: 6.00 Build 0)  -->
<svg version="1.1" id="Слой_1" xmlns="http://www.w3.org/2000/svg" xmlns:xlink="http://www.w3.org/1999/xlink" x="0px" y="0px"
	 viewBox="0 0 691.3 583.3" style="enable-background:new 0 0 691.3 583.3;" xml:space="preserve">
<style type="text/css">
	.st0{fill:#FFFFFF;}
</style>
<g>
	<circle class="st0" cx="342.4" cy="377.3" r="201.5"/>
	<g>
		
			<rect x="61.7" y="147.9" transform="matrix(0.5692 -0.8222 0.8222 0.5692 -141.1985 155.731)" class="st0" width="32.7" height="129.4"/>
		<path class="st0" d="M124.2,275.6l-121.5-84l29.1-42l121.5,84.1L124.2,275.6z M28.2,186.9l91.3,63.2l8.2-11.9L36.4,175L28.2,186.9
			z"/>
	</g>
	<g>
		
			<rect x="548.3" y="196.2" transform="matrix(0.8222 -0.5693 0.5693 0.8222 -11.9514 386.7832)" class="st0" width="129.4" height="32.7"/>
		<path class="st0" d="M566.8,275.6l-29.1-42l121.5-84.1l29.1,42L566.8,275.6z M563.3,238.3l8.2,11.9l91.3-63.2l-8.2-11.9
			L563.3,238.3z"/>
	</g>
	<g>
		
			<rect x="375" y="64.7" transform="matrix(0.2083 -0.9781 0.9781 0.2083 268.8714 494.184)" class="st0" width="129.4" height="32.7"/>
		<path class="st0" d="M449.2,158.6l-50-10.7L430.1,3.5l50,10.6L449.2,158.6z M421,133.9l14.1,3l23.2-108.6l-14.1-3L421,133.9z"/>
	</g>
	<g>
		
			<rect x="217.1" y="16.4" transform="matrix(0.9781 -0.2083 0.2083 0.9781 -11.7658 50.4137)" class="st0" width="32.7" height="129.4"/>
		<path class="st0" d="M193.1,14.2l50-10.6L274,148.1l-50,10.7L193.1,14.2z M228.9,25.3l-14.1,3L238,136.9l14.1-3L228.9,25.3z"/>
	</g>
</g>
</svg>
