<?xml version="1.0" encoding="utf-8"?>
<!-- Generator: Adobe Illustrator 19.2.1, SVG Export Plug-In . SVG Version: 6.00 Build 0)  -->
<svg version="1.1" id="Слой_1" xmlns="http://www.w3.org/2000/svg" xmlns:xlink="http://www.w3.org/1999/xlink" x="0px" y="0px"
	 viewBox="0 0 65.9 56.4" style="enable-background:new 0 0 65.9 56.4;" xml:space="preserve">
<style type="text/css">
	.st0{fill:#FFFFFF;}
</style>
<g>
	<path class="st0" d="M64.2,13.4C64.2,13.4,64.2,13.4,64.2,13.4c0-1.3-0.9-2.4-2.2-2.5c-1.4-0.1-2.6,0.9-2.7,2.2c0,0.1,0,0.2,0,0.3
		c0,0,0,0,0,0c0,0,0,0,0,0c0,0.4,0.1,0.8,0.3,1.1c0.7,2.8,1.4,6,1.4,8.9c0,15.4-12.5,27.9-27.9,27.9S5,38.8,5,23.4
		c0-3.3,0.5-6.1,1.5-9c0.1-0.1,0.1-0.3,0.2-0.5c0,0,0-0.1,0-0.1c0,0,0,0,0,0c0-0.1,0-0.2,0.1-0.3c0.1-1.4-0.9-2.6-2.3-2.8
		c-1.3-0.1-2.5,0.8-2.7,2c0,0,0,0,0,0c-1,3.2-1.8,7-1.8,10.5c0,18.2,14.8,33,33,33s33-14.8,33-33C65.9,20.3,65,16.2,64.2,13.4z"/>
	<path class="st0" d="M33,46.8c12.9,0,23.3-10.4,23.3-23.3C56.3,10.6,45.8,0.1,33,0.1S9.6,10.6,9.6,23.4C9.6,36.3,20.1,46.8,33,46.8
		z M21.3,29.4c0-1.1,0.9-1.9,1.9-1.9c1.1,0,1.9,0.9,1.9,1.9c0,0,0,0,0,0.1c0.9,3.5,4.1,6.1,7.9,6.1c3.9,0,7.1-2.7,7.9-6.3
		c0,0,0,0,0,0c0.1-1,0.9-1.8,1.9-1.8c1.1,0,1.9,0.9,1.9,1.9c0,0,0,0.1,0,0.1c0,0,0,0,0,0c0,0,0,0,0,0.1c0,0.2-0.1,0.4-0.1,0.5
		c-1.2,5.3-5.9,9.2-11.6,9.2c-5.8,0-10.5-4-11.6-9.5c0,0,0-0.1,0-0.1c0-0.1,0-0.1,0-0.2c0,0,0,0,0,0C21.3,29.5,21.3,29.5,21.3,29.4z
		"/>
</g>
</svg>
