<?xml version="1.0" encoding="utf-8"?>
<!-- Generator: Adobe Illustrator 19.2.1, SVG Export Plug-In . SVG Version: 6.00 Build 0)  -->
<svg version="1.1" id="Слой_1" xmlns="http://www.w3.org/2000/svg" xmlns:xlink="http://www.w3.org/1999/xlink" x="0px" y="0px"
	 viewBox="0 0 751.8 630" style="enable-background:new 0 0 751.8 630;" xml:space="preserve">
<style type="text/css">
	.st0{fill:#FFFFFF;}
</style>
<g>
	<path class="st0" d="M730.4,129.1c-0.5-2-1.5-4.2-2-6.2c-4.9-18.9-16-34.3-34.9-36.3c-10.6-1.1-21,2-29.3,8.8
		c-0.9,0.7-1.8,1.5-2.6,2.3c-6.7,6.4-10.5,15.4-11.5,24.6l0,0.1c-0.1,1-0.1,2.1,0,3.1c0.7,6.5,1,13.8,3.1,20.7c0,0,0,0,0,0.1
		c6.5,25.4,14,62,14,95.3c0,166.1-130.5,301.2-290.9,301.2C216,542.8,85.5,407.6,85.5,241.5c0-35.7,5.5-64.1,15.4-95.9
		c0.5-2.3,2.3-14.1,2.3-14.1c0.7-2.8,0.7-10.7,0.5-12c-3.5-17.6-17.8-30.8-35.8-32.7c-16.6-1.8-31.9,6.9-39.7,21l-2.7,5.9
		c-0.4,1.2-0.8,2.5-1.2,3.8l-0.4,1.2C11.4,158.8,4.2,203.6,4.2,241.5c0,212,167,384.5,372.2,384.5c205.2,0,372.2-172.5,372.2-384.5
		C748.6,202.6,736.7,152.6,730.4,129.1z"/>
	<path class="st0" d="M377.8,495.3c135.8,0,245.8-110.1,245.8-245.8c0-135.8-110.1-245.8-245.8-245.8S132,113.8,132,249.5
		C132,385.3,242.1,495.3,377.8,495.3z M254.6,312.6c0-11.1,9-20.1,20.1-20.1c11.1,0,20.1,9,20.1,20.1c0,0.2-0.1,0.4-0.1,0.6
		c9.7,36.8,43.1,64,82.8,64c40.6,0,74.6-28.4,83.5-66.3c0,0,0,0,0.1,0c0.8-10.3,9.4-18.5,19.9-18.5c11.1,0,20.1,9,20.1,20.1
		c0,0.3-0.1,0.6-0.1,0.9c0,0,0.1,0,0.1,0c0,0.3-0.1,0.5-0.2,0.8c-0.2,2-0.6,3.8-1.3,5.6C486.7,375.4,437,417,377.5,417
		c-60.9,0-111-42.2-122.4-99.8c-0.1-0.3-0.1-0.6-0.2-0.9c-0.1-0.6-0.3-1.1-0.4-1.7c0.1-0.1,0.1-0.2,0.2-0.4
		C254.7,313.7,254.6,313.2,254.6,312.6z"/>
</g>
</svg>
