<?xml version="1.0" encoding="utf-8"?>
<!-- Generator: Adobe Illustrator 19.2.1, SVG Export Plug-In . SVG Version: 6.00 Build 0)  -->
<svg version="1.1" id="Слой_1" xmlns="http://www.w3.org/2000/svg" xmlns:xlink="http://www.w3.org/1999/xlink" x="0px" y="0px"
	 viewBox="0 0 724.1 656.9" style="enable-background:new 0 0 724.1 656.9;" xml:space="preserve">
<style type="text/css">
	.st0{fill:#6B89AE;}
</style>
<path class="st0" d="M361.6,652.1c124.5,0,225.4-100.9,225.4-225.3c0-124.5-100.9-225.4-225.4-225.4S136.3,302.3,136.3,426.8
	C136.3,551.2,237.2,652.1,361.6,652.1z M248.7,484.6c0-10.2,8.2-18.4,18.4-18.4c10.2,0,18.4,8.2,18.4,18.4c0,0.2,0,0.4-0.1,0.6
	c8.9,33.7,39.5,58.7,75.9,58.7c37.2,0,68.4-26,76.5-60.8c0,0,0,0,0.1,0c0.7-9.5,8.6-17,18.3-17c10.2,0,18.4,8.2,18.4,18.4
	c0,0.3-0.1,0.6-0.1,0.9c0,0,0.1,0,0.1,0c0,0.2-0.1,0.5-0.2,0.7c-0.2,1.8-0.5,3.5-1.1,5.1c-11.8,51-57.4,89.1-111.9,89.1
	c-55.9,0-101.8-38.7-112.2-91.5c-0.1-0.3-0.1-0.5-0.2-0.8c-0.1-0.5-0.2-1-0.3-1.5c0.1-0.1,0.1-0.2,0.2-0.3
	C248.8,485.6,248.7,485.1,248.7,484.6z"/>
<path class="st0" d="M11.5,318.8L11.5,318.8c-13.4-17-10.5-41.6,6.4-55.1L336.7,11.6c17-13.4,41.6-10.5,55.1,6.4l0,0
	c13.4,17,10.5,41.6-6.4,55.1L66.6,325.2C49.6,338.6,24.9,335.8,11.5,318.8z"/>
<path class="st0" d="M711.8,318.8L711.8,318.8c13.4-17,10.5-41.6-6.4-55.1L386.6,11.6c-17-13.4-41.6-10.5-55.1,6.4l0,0
	c-13.4,17-10.5,41.6,6.4,55.1l318.8,252.1C673.7,338.6,698.4,335.8,711.8,318.8z"/>
</svg>
