<?xml version="1.0" encoding="utf-8"?>
<!-- Generator: Adobe Illustrator 19.2.1, SVG Export Plug-In . SVG Version: 6.00 Build 0)  -->
<svg version="1.1" id="Слой_1" xmlns="http://www.w3.org/2000/svg" xmlns:xlink="http://www.w3.org/1999/xlink" x="0px" y="0px"
	 viewBox="0 0 64.8 64.6" style="enable-background:new 0 0 64.8 64.6;" xml:space="preserve">
<style type="text/css">
	.st0{fill:#FFFFFF;}
</style>
<g>
	<path class="st0" d="M63.9,10.2c0.7-4.8-2.6-9.4-7.4-10.1c-4.8-0.7-9.4,2.6-10.1,7.4c-0.3,1.7,0,3.4,0.6,4.8l5.1,16.4l10-14.5
		c0.2-0.3,0.4-0.6,0.6-0.9l0.1-0.2l0,0C63.4,12.4,63.7,11.4,63.9,10.2z M54.4,13.6c-2.6-0.4-4.3-2.8-3.9-5.4
		c0.4-2.6,2.8-4.3,5.4-3.9c2.6,0.4,4.3,2.8,3.9,5.4C59.4,12.2,57,14,54.4,13.6z"/>
	<path class="st0" d="M46.3,46.3v10.4l18.5,7.3v-8.8C64.8,55.1,49.5,49.6,46.3,46.3z"/>
	<polygon class="st0" points="25,54.3 41.1,46.3 41.9,56.9 25,64.5 	"/>
	<path class="st0" d="M0,55.1l2.4-8c0,0,3-2.6,19.4,7.1v10.4C21.8,64.5,2.4,56.3,0,55.1z"/>
	<path class="st0" d="M9.3,21.5l4.6,1.3c0,0-1.1,4.8-0.5,7.3s2,7.2,9.3,10v11.4c0,0-13-8.2-19.6-7.2L9.3,21.5z"/>
	<polygon class="st0" points="26.6,40.6 26.6,50.6 33.4,46.3 33.4,38.6 	"/>
	<path class="st0" d="M17,23.6l7.4,2.3l-0.9,10.6C23.5,36.5,15.3,33.5,17,23.6z"/>
	<polygon class="st0" points="26.6,25.9 41,21.5 41.9,40.8 37.4,43.4 36.5,32.8 26.6,36.9 	"/>
	<path class="st0" d="M43.9,21.5l4.3,0.8l3.2,11.1l5.1-8l3.3,0.8v7.1c0,0-6.3,0-11.3,8.5l-3.4-1.9L43.9,21.5z"/>
	<path class="st0" d="M64.8,52l-13.3-5.8c0,0-0.9-9.4,10-9.1L64.8,52z"/>
</g>
</svg>
